<mxfile host="app.diagrams.net" modified="2023-06-22T15:36:37.651Z" agent="Mozilla/5.0 (Windows NT 10.0; Win64; x64) AppleWebKit/537.36 (KHTML, like Gecko) Chrome/114.0.0.0 Safari/537.36 Edg/114.0.1823.55" etag="eBamDoBFuQPW9TF_x6b7" version="21.5.0" type="github">
  <diagram name="Page-1" id="e3a06f82-3646-2815-327d-82caf3d4e204">
    <mxGraphModel dx="1983" dy="1581" grid="1" gridSize="10" guides="1" tooltips="1" connect="1" arrows="1" fold="1" page="1" pageScale="1.5" pageWidth="1169" pageHeight="826" background="none" math="0" shadow="0">
      <root>
        <mxCell id="0" style=";html=1;" />
        <mxCell id="1" style=";html=1;" parent="0" />
        <mxCell id="RgH2JHaKkqkQcPpsvsZi-16" value="" style="endArrow=none;dashed=1;html=1;dashPattern=1 3;strokeWidth=2;rounded=0;fontSize=24;fontColor=default;" edge="1" parent="1">
          <mxGeometry width="50" height="50" relative="1" as="geometry">
            <mxPoint x="937" y="280" as="sourcePoint" />
            <mxPoint x="937" y="830" as="targetPoint" />
          </mxGeometry>
        </mxCell>
        <mxCell id="RgH2JHaKkqkQcPpsvsZi-17" value="" style="shape=link;html=1;rounded=0;exitX=1;exitY=0.5;exitDx=0;exitDy=0;entryX=0;entryY=0.5;entryDx=0;entryDy=0;" edge="1" parent="1" source="RgH2JHaKkqkQcPpsvsZi-2" target="RgH2JHaKkqkQcPpsvsZi-18">
          <mxGeometry width="100" relative="1" as="geometry">
            <mxPoint x="900" y="650" as="sourcePoint" />
            <mxPoint x="1000" y="650" as="targetPoint" />
          </mxGeometry>
        </mxCell>
        <mxCell id="6a7d8f32e03d9370-62" value="CIT-02-L1 Honeypot Placement" style="text;strokeColor=none;fillColor=none;html=1;fontSize=24;fontStyle=1;verticalAlign=middle;align=center;fontColor=default;" parent="1" vertex="1">
          <mxGeometry x="499" y="30" width="861" height="40" as="geometry" />
        </mxCell>
        <mxCell id="RgH2JHaKkqkQcPpsvsZi-2" value="" style="image;aspect=fixed;perimeter=ellipsePerimeter;html=1;align=center;shadow=0;dashed=0;spacingTop=3;image=img/lib/active_directory/internet_cloud.svg;fontSize=24;fontColor=default;" vertex="1" parent="1">
          <mxGeometry x="110" y="490.5" width="252.38" height="159" as="geometry" />
        </mxCell>
        <mxCell id="RgH2JHaKkqkQcPpsvsZi-4" value="" style="endArrow=none;dashed=1;html=1;dashPattern=1 3;strokeWidth=2;rounded=0;fontSize=24;fontColor=default;" edge="1" parent="1">
          <mxGeometry width="50" height="50" relative="1" as="geometry">
            <mxPoint x="460" y="280" as="sourcePoint" />
            <mxPoint x="460" y="830" as="targetPoint" />
          </mxGeometry>
        </mxCell>
        <mxCell id="RgH2JHaKkqkQcPpsvsZi-3" value="" style="image;html=1;image=img/lib/clip_art/networking/Firewall_128x128.png;fontSize=24;fontColor=default;" vertex="1" parent="1">
          <mxGeometry x="401.5" y="500" width="135" height="100" as="geometry" />
        </mxCell>
        <mxCell id="RgH2JHaKkqkQcPpsvsZi-5" value="Web Server" style="image;aspect=fixed;perimeter=ellipsePerimeter;html=1;align=center;shadow=0;dashed=0;spacingTop=3;image=img/lib/active_directory/web_server.svg;fontSize=24;fontColor=default;" vertex="1" parent="1">
          <mxGeometry x="573" y="650" width="96" height="100" as="geometry" />
        </mxCell>
        <mxCell id="RgH2JHaKkqkQcPpsvsZi-6" value="Application &lt;br style=&quot;font-size: 24px;&quot;&gt;Server" style="image;html=1;image=img/lib/clip_art/computers/Server_Rack_Empty_128x128.png;fontSize=24;fontColor=default;" vertex="1" parent="1">
          <mxGeometry x="730" y="330" width="140" height="100" as="geometry" />
        </mxCell>
        <mxCell id="RgH2JHaKkqkQcPpsvsZi-7" value="Mail Server" style="fontColor=default;verticalAlign=top;verticalLabelPosition=bottom;labelPosition=center;align=center;html=1;outlineConnect=0;fillColor=#CCCCCC;strokeColor=#6881B3;gradientColor=none;gradientDirection=north;strokeWidth=2;shape=mxgraph.networks.mail_server;fontSize=24;" vertex="1" parent="1">
          <mxGeometry x="747.5" y="665" width="105" height="100" as="geometry" />
        </mxCell>
        <mxCell id="RgH2JHaKkqkQcPpsvsZi-8" value="&lt;font style=&quot;font-size: 24px;&quot;&gt;External &lt;br style=&quot;font-size: 24px;&quot;&gt;Domain Controller&lt;/font&gt;" style="sketch=0;aspect=fixed;pointerEvents=1;shadow=0;dashed=0;html=1;strokeColor=none;labelPosition=center;verticalLabelPosition=bottom;verticalAlign=top;align=center;fillColor=#00188D;shape=mxgraph.mscae.enterprise.domain_controller;fontSize=24;fontColor=default;" vertex="1" parent="1">
          <mxGeometry x="585" y="330" width="72" height="100" as="geometry" />
        </mxCell>
        <mxCell id="RgH2JHaKkqkQcPpsvsZi-9" value="" style="image;html=1;image=img/lib/clip_art/networking/Firewall_128x128.png;fontSize=24;fontColor=default;" vertex="1" parent="1">
          <mxGeometry x="879" y="500" width="135" height="100" as="geometry" />
        </mxCell>
        <mxCell id="RgH2JHaKkqkQcPpsvsZi-10" value="Database" style="image;html=1;image=img/lib/clip_art/computers/Database_128x128.png;fontSize=24;fontColor=default;" vertex="1" parent="1">
          <mxGeometry x="1190" y="790" width="80" height="100" as="geometry" />
        </mxCell>
        <mxCell id="RgH2JHaKkqkQcPpsvsZi-11" value="Exchange" style="sketch=0;pointerEvents=1;shadow=0;dashed=0;html=1;strokeColor=none;fillColor=#505050;labelPosition=center;verticalLabelPosition=bottom;verticalAlign=top;outlineConnect=0;align=center;shape=mxgraph.office.servers.exchange_server;fontSize=24;fontColor=default;" vertex="1" parent="1">
          <mxGeometry x="1370" y="803" width="57" height="100" as="geometry" />
        </mxCell>
        <mxCell id="RgH2JHaKkqkQcPpsvsZi-12" value="Internal&lt;br&gt;Domain Controller" style="sketch=0;aspect=fixed;pointerEvents=1;shadow=0;dashed=0;html=1;strokeColor=none;labelPosition=center;verticalLabelPosition=bottom;verticalAlign=top;align=center;fillColor=#00188D;shape=mxgraph.mscae.enterprise.domain_controller;fontSize=24;fontColor=default;" vertex="1" parent="1">
          <mxGeometry x="1520" y="770" width="72" height="100" as="geometry" />
        </mxCell>
        <mxCell id="RgH2JHaKkqkQcPpsvsZi-15" value="" style="image;html=1;image=img/lib/clip_art/computers/Laptop_128x128.png" vertex="1" parent="1">
          <mxGeometry x="1290" y="300.5" width="80" height="100" as="geometry" />
        </mxCell>
        <mxCell id="RgH2JHaKkqkQcPpsvsZi-18" value="" style="image;html=1;image=img/lib/clip_art/networking/Router_Icon_128x128.png" vertex="1" parent="1">
          <mxGeometry x="1210" y="530" width="80" height="80" as="geometry" />
        </mxCell>
        <mxCell id="RgH2JHaKkqkQcPpsvsZi-19" value="" style="shape=link;html=1;rounded=0;exitX=0.5;exitY=1;exitDx=0;exitDy=0;" edge="1" parent="1" source="RgH2JHaKkqkQcPpsvsZi-6">
          <mxGeometry width="100" relative="1" as="geometry">
            <mxPoint x="900" y="650" as="sourcePoint" />
            <mxPoint x="800" y="660" as="targetPoint" />
          </mxGeometry>
        </mxCell>
        <mxCell id="RgH2JHaKkqkQcPpsvsZi-21" value="" style="shape=link;html=1;rounded=0;exitX=0.5;exitY=1;exitDx=0;exitDy=0;exitPerimeter=0;" edge="1" parent="1" source="RgH2JHaKkqkQcPpsvsZi-8" target="RgH2JHaKkqkQcPpsvsZi-5">
          <mxGeometry width="100" relative="1" as="geometry">
            <mxPoint x="900" y="650" as="sourcePoint" />
            <mxPoint x="620" y="560" as="targetPoint" />
          </mxGeometry>
        </mxCell>
      </root>
    </mxGraphModel>
  </diagram>
</mxfile>
